<?xml version="1.0" encoding="UTF-8"?>
<svg version="1.1" xmlns="http://www.w3.org/2000/svg" width="1024" height="1024">
<path d="M0 0 C337.92 0 675.84 0 1024 0 C1024 337.92 1024 675.84 1024 1024 C686.08 1024 348.16 1024 0 1024 C0 686.08 0 348.16 0 0 Z " fill="#000000" transform="translate(0,0)"/>
<path d="M0 0 C1.37047057 -0.00597315 1.37047057 -0.00597315 2.76862741 -0.01206696 C3.7686226 -0.00624128 4.76861779 -0.00041559 5.79891586 0.00558662 C7.39662783 0.00302335 7.39662783 0.00302335 9.02661681 0.00040829 C12.60733941 -0.00289449 16.18787596 0.00813021 19.76858139 0.01904488 C22.33071513 0.01960882 24.8928492 0.01929276 27.45498276 0.01815987 C32.97706355 0.01770395 38.49908409 0.02338873 44.0211525 0.03463554 C52.00513457 0.05088597 59.9890938 0.05609808 67.97309062 0.05861153 C80.9264182 0.06298935 93.87972061 0.07630082 106.83303452 0.09521675 C119.41636657 0.11357329 131.99969178 0.1277309 144.58303452 0.13623238 C145.35860247 0.13675782 146.13417043 0.13728327 146.93324044 0.13782464 C150.82401639 0.1404347 154.71479238 0.14296212 158.60556841 0.14544845 C190.88616135 0.16618366 223.16672334 0.20141157 255.44729233 0.24609566 C255.3106923 1.33768643 255.17409227 2.42927721 255.03335285 3.5539465 C254.85195768 5.00412961 254.67056615 6.45431319 254.4891777 7.90449715 C254.39940234 8.6218266 254.30962697 9.33915605 254.21713114 10.07822275 C253.19179688 18.2769857 252.19823844 26.47942826 251.21511459 34.68335152 C250.99423832 36.52235465 250.77222629 38.36122171 250.54909897 40.19995308 C248.62802013 56.03587326 247.23601726 71.6572353 247.25979233 87.62109566 C247.26039658 88.38064552 247.26100082 89.14019539 247.26162338 89.92276192 C247.30215453 108.93755542 248.37676991 127.83625046 250.47072983 146.73828316 C252.34339795 163.72254708 253.84822237 180.51990747 253.88479233 197.62109566 C253.89069382 198.38503639 253.89659531 199.14897713 253.90267563 199.93606758 C254.06967638 231.50306367 242.99304549 254.98999207 223.44729233 279.24609566 C223.0135228 279.78637398 222.57975327 280.3266523 222.1328392 280.88330269 C219.60008435 284.02865476 217.02781123 287.1399155 214.44729233 290.24609566 C212.9458634 292.07825893 211.44588488 293.91161167 209.94729233 295.74609566 C207.74501067 298.43819513 205.54240597 301.13002179 203.33791733 303.82031441 C201.87321524 305.608427 200.40973112 307.39753777 198.94729233 309.18750191 C197.63101504 310.7978849 196.31434252 312.40794954 194.99416733 314.01513863 C188.2799103 322.18966178 181.71835951 330.45251578 175.32766342 338.88257027 C171.05927239 344.49390527 166.65067169 349.97725024 162.18606186 355.43310738 C158.68674558 359.71169651 155.23106478 364.02001628 151.82229233 368.37109566 C151.37394028 368.94327827 150.92558823 369.51546089 150.46364975 370.10498238 C148.68278014 372.38080669 146.90458088 374.65868572 145.12942123 376.93896675 C139.0874213 384.69894371 132.92350863 392.34118611 126.65041733 399.91577339 C122.91471373 404.43607737 119.24326076 408.99866683 115.63479233 413.62109566 C108.21979107 423.11294042 100.67809149 432.44282979 92.44729233 441.24609566 C91.9305394 441.80748238 91.41378647 442.36886909 90.88137436 442.94726753 C89.19139959 444.77230276 87.47880104 446.57341713 85.75979233 448.37109566 C85.22515366 448.95230171 84.69051498 449.53350777 84.13967514 450.13232613 C81.43033799 452.91454896 79.97700597 454.18879637 76.05276108 454.61328316 C75.19295639 454.49211128 74.3331517 454.37093941 73.44729233 454.24609566 C73.43794662 453.56732368 73.42860092 452.88855171 73.41897202 452.18921089 C73.19188904 439.03732202 72.95000418 426.73158139 68.44729233 414.24609566 C68.09795639 413.25351753 67.74862045 412.26093941 67.38869858 411.23828316 C62.28749169 397.99985697 54.99115545 385.73558926 45.44729233 375.24609566 C44.81694077 374.54613472 44.1865892 373.84617378 43.53713608 373.12500191 C40.1558933 369.55054526 37.06546328 367.16094703 32.44729233 365.24609566 C33.86983445 361.46315218 35.5992589 358.00974026 37.57229233 354.48437691 C38.19104233 353.37529976 38.80979233 352.26622261 39.44729233 351.12353706 C39.77342514 350.54227058 40.09955795 349.9610041 40.43557358 349.36212349 C41.46331891 347.53002608 42.48702924 345.69572457 43.50979233 343.86084175 C46.37226066 338.72827982 49.24399183 333.60104848 52.13479233 328.48437691 C62.35583884 310.35176578 72.4360201 292.02347299 80.19729233 272.68359566 C80.78800522 271.21491035 80.78800522 271.21491035 81.3906517 269.71655464 C85.03587704 260.30429248 88.0348104 250.79631442 87.82229233 240.62109566 C87.81214096 239.89382271 87.80198959 239.16654976 87.79153061 238.41723824 C87.62299378 232.55568404 86.77395422 227.61058778 84.44729233 222.24609566 C84.03350327 221.28316597 83.6197142 220.32023628 83.19338608 219.32812691 C74.76572794 201.2098101 60.69758572 190.4962085 42.40334702 183.45996284 C2.89565238 169.3895116 -49.14213972 173.10387848 -86.98630142 190.35547066 C-104.7358339 199.33790304 -113.65448506 217.35919728 -119.76779556 235.44311714 C-122.50003484 243.91684471 -124.61036985 252.51149058 -126.69180679 261.16449165 C-126.85215408 261.83079597 -127.01250137 262.4971003 -127.17770767 263.18359566 C-127.33805496 263.85167244 -127.49840225 264.51974922 -127.66360855 265.20807076 C-131.04275973 279.17586778 -135.49628335 292.7123521 -140.18271255 306.2891407 C-141.32201887 309.60281607 -142.43753457 312.92421959 -143.55270767 316.24609566 C-143.88963638 317.20950874 -144.22656509 318.17292183 -144.57370377 319.16552925 C-149.73116203 335.38028831 -145.33609776 349.10131545 -139.92770767 364.49609566 C-138.98962525 367.23634785 -138.05847508 369.97889406 -137.12747574 372.72155952 C-136.51155611 374.53518858 -135.89352455 376.34810182 -135.27334976 378.16028023 C-133.14550323 384.40179415 -131.12858174 390.66941514 -129.21677017 396.98047066 C-128.97582626 397.76657722 -128.73488235 398.55268379 -128.48663712 399.36261177 C-122.81474344 418.36758469 -122.12405499 438.0157562 -131.24020767 456.12109566 C-136.32568893 464.60541615 -142.94086136 472.90284477 -152.55270767 476.24609566 C-158.71949404 477.55123563 -163.60203723 475.91363155 -169.01364517 472.90625191 C-205.24042085 449.21951397 -235.86404788 368.25980347 -244.55270767 327.24609566 C-245.93198885 317.70317167 -245.17717031 308.91187003 -243.70895767 299.42968941 C-243.50133963 298.02228065 -243.29493434 296.61469253 -243.0896492 295.2069416 C-242.54093286 291.46943486 -241.9745769 287.73480738 -241.40448761 284.00050926 C-240.93041495 280.87814416 -240.46765335 277.75414699 -240.00511646 274.63005543 C-237.29473632 256.32412013 -234.44876505 238.04144218 -231.45004654 219.78042793 C-228.49276283 201.72516871 -226.18010273 183.59158665 -223.94845963 165.4338398 C-220.5712621 138.1943698 -215.29179479 115.04957927 -192.97800064 96.97021675 C-176.61670434 84.45863723 -156.70366886 76.26228161 -138.3461647 67.15307808 C-132.46986942 64.23113048 -126.65645213 61.20772986 -120.86520767 58.12109566 C-113.84731763 54.38344981 -106.73411667 50.92277308 -99.52756119 47.56543159 C-94.36662802 45.14662576 -89.31743591 42.57882197 -84.30270767 39.87109566 C-78.19476642 36.58334342 -72.01422175 33.51638624 -65.74020767 30.55859566 C-53.5196792 24.79205762 -41.44608109 18.73576869 -29.36520767 12.68359566 C-28.36911484 12.18461769 -27.373022 11.68563972 -26.34674454 11.17154121 C-21.07985155 8.53248062 -15.81398382 5.89138573 -10.549366 3.24778938 C-9.56102013 2.75195099 -9.56102013 2.75195099 -8.55270767 2.24609566 C-7.94542619 1.90051145 -7.33814471 1.55492724 -6.71246076 1.19887078 C-4.28493271 0.12796673 -2.64320349 -0.00254644 0 0 Z " fill="#FED9B5" transform="translate(527.5527076721191,92.75390434265137)"/>
<path d="M0 0 C14.99749958 11.85534992 25.19053392 28.12227942 29 47 C29.39706817 51.32291963 29.4210186 55.59896849 29.375 59.9375 C29.38660156 61.02740234 29.39820313 62.11730469 29.41015625 63.24023438 C29.34738824 80.84666199 23.13537704 95.95984552 10.74609375 108.3828125 C-10.29881421 128.43983716 -35.80344273 130.86573885 -63.5776825 130.3011322 C-85.50895905 129.61277226 -105.81008352 120.91923366 -121 105 C-127.35778667 97.0285003 -132.83771959 86.60794664 -131.875 76.125 C-131.46587399 73.66026528 -130.81490514 71.44099867 -130.02734375 69.0625 C-128.40523396 63.48035886 -128.21207405 57.63900384 -127.6875 51.875 C-126.70122518 42.14574231 -125.56674681 33.75065257 -121 25 C-120.63132812 24.21625 -120.26265625 23.4325 -119.8828125 22.625 C-111.2426872 5.46392354 -95.47986951 -6.34325102 -77.62109375 -12.61328125 C-51.48660707 -20.88393618 -22.0898629 -16.30442262 0 0 Z " fill="#00A994" transform="translate(550,476)"/>
<path d="M0 0 C12.29676807 2.79446546 24.18477245 6.53539296 36.14450073 10.51010132 C41.58954237 12.3189258 47.04124967 14.1074767 52.4921875 15.8984375 C54.11479744 16.4322831 54.11479744 16.4322831 55.77018738 16.97691345 C64.80562279 19.94614362 73.8606552 22.84756922 82.9375 25.6875 C83.95411713 26.00574234 83.95411713 26.00574234 84.99127197 26.33041382 C89.99193137 27.89420538 94.99557554 29.44830599 100 31 C100.85392334 31.2648822 101.70784668 31.5297644 102.58764648 31.80267334 C111.71897486 34.63484458 120.85147104 37.46321578 129.98628235 40.28413391 C133.22394346 41.28437647 136.46098414 42.28661969 139.69805908 43.28875732 C141.94746494 43.98376797 144.19800825 44.67498873 146.44873047 45.36572266 C153.63199424 47.57808434 160.75361812 49.86730203 167.75 52.625 C168.5028125 52.91117188 169.255625 53.19734375 170.03125 53.4921875 C177.64937094 56.46379496 177.64937094 56.46379496 180 59 C180.32543945 61.41601562 180.32543945 61.41601562 180 64 C174.53834613 69.68541364 165.6252466 72.69686481 158.5625 75.875 C156.70072178 76.72341043 154.84028752 77.57472056 152.97994995 78.42628479 C151.67297803 79.0244787 150.36561878 79.62182698 149.05789185 80.21836853 C144.31047445 82.38720582 139.58578546 84.6008364 134.87109375 86.83984375 C134.18847977 87.16387177 133.50586578 87.48789978 132.80256653 87.82174683 C131.7704731 88.31168625 131.7704731 88.31168625 130.7175293 88.81152344 C117.4730191 95.09843672 104.16290537 101.20566106 90.75 107.125 C76.78562949 113.2881843 62.9273884 119.63924865 49.11308289 126.13282776 C40.31849117 130.2643052 31.50297993 134.35083217 22.6875 138.4375 C21.81359619 138.84274902 20.93969238 139.24799805 20.03930664 139.66552734 C7.65209776 145.40769955 -4.75832864 151.09600723 -17.19869995 156.7220459 C-24.59622017 160.06758639 -31.97754334 163.44244735 -39.32421875 166.8984375 C-40.0051207 167.21836166 -40.68602264 167.53828583 -41.38755798 167.86790466 C-44.61085794 169.38340002 -47.83142257 170.90427839 -51.04760742 172.43481445 C-52.19463135 172.97581787 -53.34165527 173.51682129 -54.5234375 174.07421875 C-55.51263184 174.54432373 -56.50182617 175.01442871 -57.52099609 175.4987793 C-58.66906738 175.99418213 -59.81713867 176.48958496 -61 177 C-61.75523956 177.34880722 -62.51047913 177.69761444 -63.28860474 178.05699158 C-71.45313222 181.48970143 -79.30734651 181.55036145 -88.0078125 181.41796875 C-89.54319652 181.40579234 -91.07858728 181.39444141 -92.61398315 181.38386536 C-95.81982569 181.35649592 -99.02496876 181.31301717 -102.23046875 181.2590332 C-105.4830887 181.20597093 -108.73425587 181.17815843 -111.98730469 181.17504883 C-145.49842787 181.13806958 -145.49842787 181.13806958 -160 173 C-161.83394301 172.1386536 -163.68387621 171.32470258 -165.54127502 170.5153656 C-167.97946689 169.45255885 -170.39496763 168.34097306 -172.81295776 167.2331543 C-183.8029077 162.20202052 -194.83898936 157.28661962 -205.9375 152.5 C-206.5537323 152.23414093 -207.1699646 151.96828186 -207.80487061 151.69436646 C-210.31362697 150.61218423 -212.82246543 149.53019287 -215.33151245 148.44868469 C-222.3358307 145.42764581 -229.32471043 142.37153094 -236.3125 139.3125 C-237.63964685 138.73201135 -238.96679531 138.15152637 -240.29394531 137.57104492 C-246.90006365 134.68012323 -253.50219195 131.78039913 -260.09819031 128.86645508 C-278.96233518 120.53285475 -297.86703876 112.31337956 -316.875 104.3125 C-318.28576813 103.71852417 -318.28576813 103.71852417 -319.72503662 103.11254883 C-323.45803664 101.54108104 -327.1912434 99.97010527 -330.92462158 98.39953613 C-339.32310635 94.86587972 -347.71855681 91.32533529 -356.10089111 87.75350952 C-357.53706368 87.14243762 -358.9739937 86.53314176 -360.4118042 85.92593384 C-367.99086886 82.7242337 -375.50087447 79.38662787 -382.91796875 75.82421875 C-383.61231522 75.50250198 -384.30666168 75.18078522 -385.02204895 74.84931946 C-389.78456718 72.51171573 -389.78456718 72.51171573 -390.94262695 69.76098633 C-390.96156006 69.17986084 -390.98049316 68.59873535 -391 68 C-386.86128075 63.76033637 -383.09068139 61.43991726 -377.55859375 59.30078125 C-376.91058807 59.04818039 -376.2625824 58.79557953 -375.59494019 58.5353241 C-373.39956217 57.6824023 -371.2000531 56.84078388 -369 56 C-367.38752292 55.37914258 -365.77513999 54.75804059 -364.1628418 54.13671875 C-359.63906519 52.3970524 -355.11138321 50.66774916 -350.58276367 48.94073486 C-327.46978809 40.12432228 -304.40088894 31.19607525 -281.34223938 22.23873901 C-275.35622413 19.91370347 -269.3685598 17.59298997 -263.37890625 15.27734375 C-262.65307343 14.99669067 -261.9272406 14.7160376 -261.17941284 14.42687988 C-257.92196867 13.16749417 -254.66427839 11.90875285 -251.40625 10.65087891 C-249.73755859 10.00578369 -249.73755859 10.00578369 -248.03515625 9.34765625 C-247.0105127 8.9520752 -245.98586914 8.55649414 -244.93017578 8.14892578 C-241.27301205 6.71494707 -237.64317466 5.21766949 -234.02124023 3.69702148 C-232 3 -232 3 -229 3 C-228.32389577 4.89248819 -227.65949561 6.7891602 -227 8.6875 C-226.62875 9.74324219 -226.2575 10.79898438 -225.875 11.88671875 C-224.44083874 16.98951573 -224.44083874 16.98951573 -225 20 C-234.87258469 29.06718667 -250.85842632 32.52957088 -263.3125 36.8125 C-266.89529619 38.05248496 -270.47695142 39.29574924 -274.05859375 40.5390625 C-274.93066467 40.84126205 -275.8027356 41.14346161 -276.70123291 41.45481873 C-283.45123747 43.7976843 -290.16706224 46.22689662 -296.875 48.6875 C-306.98833975 52.37492818 -317.19878202 55.74336689 -327.4375 59.0625 C-328.20149109 59.31091644 -328.96548218 59.55933289 -329.75262451 59.8152771 C-331.91592892 60.51731393 -334.08065772 61.21472572 -336.24609375 61.91015625 C-337.50091553 62.31371338 -338.7557373 62.71727051 -340.04858398 63.13305664 C-343 64 -343 64 -345 64 C-345 65.98 -345 67.96 -345 70 C-344.13568359 70.11375977 -343.27136719 70.22751953 -342.38085938 70.34472656 C-338.92001324 71.01550292 -336.12669898 72.06276248 -332.90625 73.484375 C-331.13701172 74.2587793 -331.13701172 74.2587793 -329.33203125 75.04882812 C-328.05466353 75.61583141 -326.77732046 76.18289025 -325.5 76.75 C-324.16047223 77.33861025 -322.82062232 77.92648786 -321.48046875 78.51367188 C-318.6979629 79.73349549 -315.91686645 80.95645251 -313.13671875 82.18164062 C-307.38575215 84.71322123 -301.61818583 87.20626803 -295.85055542 89.69958496 C-293.36016333 90.77674658 -290.87082988 91.85634342 -288.38145447 92.93585205 C-283.37267856 95.10777211 -278.36241237 97.2761635 -273.34910583 99.43760681 C-258.90302718 105.66598448 -244.5032696 111.98550748 -230.15533447 118.4377594 C-219.17529836 123.37506143 -208.18490678 128.28901016 -197.1875 133.1875 C-196.20584869 133.62489502 -195.22419739 134.06229004 -194.21279907 134.51293945 C-182.49177233 139.73096143 -170.74934884 144.8462195 -158.86645508 149.68603516 C-152.24750044 152.4078823 -145.8088995 155.43046138 -139.375 158.5625 C-131.61561862 162.3260003 -123.81608483 165.94681653 -115.875 169.3125 C-114.95638184 169.71605713 -114.03776367 170.11961426 -113.09130859 170.53540039 C-112.23359863 170.89110107 -111.37588867 171.24680176 -110.4921875 171.61328125 C-109.74308105 171.93079346 -108.99397461 172.24830566 -108.22216797 172.57543945 C-105.15360296 173.16171 -103.81945625 172.35760811 -101 171 C-99.66423049 170.40402413 -98.3272718 169.81071041 -96.98950195 169.21923828 C-95.40523689 168.50409121 -93.82153042 167.78770583 -92.23828125 167.0703125 C-90.9559536 166.49064224 -90.9559536 166.49064224 -89.64772034 165.89926147 C-86.86873855 164.64244059 -84.09056669 163.38384219 -81.3125 162.125 C-79.89049286 161.48123413 -79.89049286 161.48123413 -78.4397583 160.82446289 C-64.22001144 154.38644416 -50.02865334 147.89090764 -35.86669922 141.32666016 C-24.44340075 136.04014986 -12.99436611 130.80891499 -1.53125 125.609375 C1.16669566 124.38548057 3.86462669 123.16155392 6.5625 121.9375 C7.59191208 121.47046158 7.59191208 121.47046158 8.64212036 120.99398804 C21.11248702 115.33383511 33.5497241 109.60340373 45.97879028 103.85321045 C56.7729964 98.85992334 67.5842439 93.90725172 78.41967773 89.00408936 C88.65100753 84.37321491 98.86167719 79.70732353 109 74.875 C109.89525391 74.44968994 110.79050781 74.02437988 111.71289062 73.58618164 C116.65332538 71.21247199 121.44943543 68.67953612 126.1875 65.92236328 C128 65 128 65 130 65 C130 63.02 130 61.04 130 59 C128.73285156 58.78601563 127.46570313 58.57203125 126.16015625 58.3515625 C117.7488515 56.66487066 109.61612931 53.92918665 101.4375 51.375 C99.81588769 50.87326955 98.19414341 50.37196537 96.57226562 49.87109375 C89.40321353 47.65102318 82.24238343 45.40916973 75.10473633 43.08984375 C64.24986613 39.56726057 53.37623976 36.18565976 42.39453125 33.078125 C41.27437119 32.76094513 40.15421112 32.44376526 39.00010681 32.11697388 C34.43411226 30.82777075 29.86681158 29.54353533 25.29614258 28.27099609 C21.88872405 27.3202321 18.48522098 26.35639868 15.08203125 25.390625 C14.0539888 25.10825989 13.02594635 24.82589478 11.9667511 24.53497314 C6.26967082 22.90770553 1.28638126 21.28638126 -3 17 C-2.94921875 14.9609375 -2.94921875 14.9609375 -2.6875 12.375 C-2.60886719 11.53710938 -2.53023437 10.69921875 -2.44921875 9.8359375 C-1.91435807 6.45933877 -0.95901994 3.27863889 0 0 Z " fill="#00AC96" transform="translate(612,754)"/>
<path d="M0 0 C-0.03480469 0.96679688 -0.06960938 1.93359375 -0.10546875 2.9296875 C-0.36425553 15.37609927 1.38540907 23.96687895 9 34 C9.40605469 34.57105469 9.81210937 35.14210938 10.23046875 35.73046875 C16.05379426 43.27391503 24.61315176 48.76681446 32.2265625 54.390625 C52.4603619 69.34376875 52.4603619 69.34376875 55 78 C56.07316215 85.24384448 52.99795277 91.61884916 49.375 97.75 C35.85844031 110.55516181 13.77846076 114.13957603 -4 117 C-5.05936768 117.176521 -6.11873535 117.35304199 -7.21020508 117.53491211 C-11.48834043 118.05992969 -15.65236354 118.16143967 -19.95703125 118.16796875 C-20.80944901 118.17220352 -21.66186676 118.17643829 -22.54011536 118.18080139 C-25.29762725 118.19066825 -28.05497359 118.19072483 -30.8125 118.1875 C-31.75285095 118.18689575 -32.6932019 118.1862915 -33.66204834 118.18566895 C-100.48838136 118.06892183 -100.48838136 118.06892183 -121 98 C-124.063196 92.79732121 -125.07679753 88.91786203 -124 83 C-120.83999817 73.70587696 -115.56615851 67.99396973 -108 62 C-106.16596746 60.500855 -104.33264019 59.00084678 -102.5 57.5 C-101.12714844 56.38625 -101.12714844 56.38625 -99.7265625 55.25 C-95.35200476 51.64004978 -91.15497949 47.8591557 -87 44 C-86.20335937 43.28070312 -85.40671875 42.56140625 -84.5859375 41.8203125 C-73.71490802 31.60372626 -70.24405882 20.76583313 -69.24609375 6.28515625 C-69 4 -69 4 -68 2 C-66.91396484 2.01047363 -65.82792969 2.02094727 -64.70898438 2.03173828 C-35.31784565 2.3157714 -35.31784565 2.3157714 -6.02246094 0.18359375 C-4.0222658 0.00202123 -2.00841957 0 0 0 Z " fill="#00A994" transform="translate(533,673)"/>
<path d="M0 0 C5.42857803 0.50264611 8.95930333 2.48515608 13.5 5.25 C53.06041397 28.29847851 112.04865569 26.37390156 154.95898438 15.80664062 C168.54487313 12.20293346 181.69957195 7.65901326 194.171875 1.15234375 C197 0 197 0 199.1953125 0.0546875 C201.65210981 1.34158133 202.63530022 2.85935663 204.125 5.1875 C204.62257813 5.94417969 205.12015625 6.70085938 205.6328125 7.48046875 C209.83858291 15.23110279 210.11309578 23.38222802 208.41796875 31.9375 C205.46959007 41.41539311 199.30086659 48.54927913 190.625 53.3125 C177.48143005 59.15408664 163.28849786 61.44682646 149.1875 63.75 C147.25813599 64.06626343 147.25813599 64.06626343 145.28979492 64.38891602 C129.34007916 66.88211327 113.61975847 67.21322816 97.50830078 67.24023438 C94.03523451 67.24990192 90.56277102 67.28099506 87.08984375 67.3125 C60.48593115 67.43897853 21.29901795 66.08623998 1 46 C-5.77299525 38.7037049 -8.64892172 30.85570315 -8.35546875 20.90625 C-7.41809837 13.2424746 -4.74012203 6.09444261 0 0 Z " fill="#00AA95" transform="translate(397,791)"/>
<path d="M0 0 C-0.09356277 0.78307022 -0.18712555 1.56614044 -0.28352356 2.37294006 C-1.18370502 9.91226208 -2.0804618 17.45198114 -2.97377491 24.99211979 C-3.52156878 29.61472927 -4.07205801 34.23700575 -4.62486458 38.85901833 C-4.98227437 41.8555246 -5.33575598 44.85249083 -5.68944931 47.84943771 C-5.95765567 50.10290259 -6.23261498 52.35547582 -6.50808716 54.60806274 C-7.39885034 62.00673135 -8.12821534 69.37074207 -8.54443359 76.81201172 C-8.68022661 78.91343964 -8.81921172 81.01463595 -8.95883751 83.1158123 C-9.07018544 85.05099631 -9.12596618 86.98913161 -9.17964172 88.92677307 C-9.65756231 96.14042438 -10.95845571 99.69293669 -16.36645508 104.64477539 C-18.22329684 106.12329033 -20.09980996 107.57762678 -22 109 C-23.36475907 110.17531115 -24.72158445 111.36005703 -26.0625 112.5625 C-26.69285156 113.11035156 -27.32320313 113.65820312 -27.97265625 114.22265625 C-30.33489173 116.29359487 -32.66795853 118.39512848 -35 120.5 C-38.536907 123.68857525 -42.08055818 126.86610101 -45.6796875 129.984375 C-47.54961133 131.60875328 -49.40530978 133.24654206 -51.2578125 134.890625 C-61.62667183 144.02492738 -71.64590294 152.73075046 -86.25390625 152.375 C-95.0995355 151.16706201 -103.18118665 146.72800294 -109 140 C-115.86085704 130.35191978 -118.06466626 121.83110376 -117 110 C-116.12421951 106.65113482 -114.82282509 103.9326208 -113 101 C-112.62230469 100.38382812 -112.24460938 99.76765625 -111.85546875 99.1328125 C-104.99150637 89.1375561 -95.17415815 80.71348382 -85.74609375 73.2421875 C-82.72190176 70.77293259 -79.85432051 68.16064429 -77 65.5 C-73.29168825 62.04806976 -69.51491704 58.73475925 -65.5625 55.5625 C-60.78378372 51.71889943 -56.30842313 47.63039836 -51.83618164 43.44165039 C-47.64670474 39.5400333 -43.27827064 35.92675203 -38.8125 32.34375 C-35.60149809 29.66791508 -32.54975367 26.85637431 -29.5 24 C-24.70660284 19.51161795 -19.77742881 15.28588875 -14.6484375 11.1796875 C-10.96383681 8.14722853 -7.47926262 4.91258981 -3.99609375 1.65234375 C-2 0 -2 0 0 0 Z " fill="#FCBF8A" transform="translate(284,241)"/>
<path d="M0 0 C0.66 0 1.32 0 2 0 C4.42706271 5.72162975 4.42265568 11.19802985 4.4375 17.3125 C4.44330078 19.00113159 4.44330078 19.00113159 4.44921875 20.72387695 C4.32531619 30.23017212 3.0609349 39.33925077 1.5 48.6875 C-3.33931374 77.98157436 0.67865987 100.85452227 10.78466797 128.49267578 C11.21408691 129.6836084 11.64350586 130.87454102 12.0859375 132.1015625 C12.4782959 133.16713379 12.8706543 134.23270508 13.27490234 135.33056641 C14 138 14 138 13 141 C10.4154763 142.42758501 7.84631814 143.72718265 5.1875 145 C-5.45300126 150.36102526 -14.33590116 157.28585702 -20.62109375 167.63671875 C-22 169 -22 169 -24.66015625 169.20703125 C-25.43230469 169.13871094 -26.20445312 169.07039062 -27 169 C-27.27972656 167.87207031 -27.55945313 166.74414062 -27.84765625 165.58203125 C-30.38647858 155.54958816 -33.29624665 145.72749355 -36.67602539 135.94458008 C-40.51905499 124.77749239 -40.82533406 115.46459402 -37.8125 104 C-37.55694336 103.00508545 -37.30138672 102.0101709 -37.03808594 100.98510742 C-32.31740345 83.14864666 -26.63228487 65.56475233 -21 48 C-20.75878418 47.24545532 -20.51756836 46.49091064 -20.26904297 45.71350098 C-8.28080897 8.28080897 -8.28080897 8.28080897 0 0 Z " fill="#FBC08A" transform="translate(442,308)"/>
<path d="M0 0 C1.15757812 0.42539062 2.31515625 0.85078125 3.5078125 1.2890625 C19.33890356 6.75508206 34.84453432 7.42206004 51.46069336 7.36010742 C54.92947916 7.35160133 58.3966101 7.38045821 61.86523438 7.41210938 C75.62507372 7.45487643 88.2794817 6.18146858 101.6328125 2.9140625 C103.24006771 2.53826185 104.84855422 2.16768692 106.45825195 1.80249023 C107.52666069 1.55788307 107.52666069 1.55788307 108.61665344 1.30833435 C114.46284157 0.16507762 118.63379779 0.65383552 123.6328125 3.9140625 C126.83005589 7.14577752 129.39562522 10.13515787 130.0078125 14.7265625 C129.61617985 18.05544003 129.00499423 19.50359053 126.47265625 21.69921875 C119.75570175 26.13440527 111.72898901 28.33706767 104.0703125 30.6015625 C103.41844971 30.80394531 102.76658691 31.00632812 102.0949707 31.21484375 C87.26420544 35.37057482 71.22777223 35.29222608 55.9453125 35.2265625 C55.07939484 35.22507202 54.21347717 35.22358154 53.32131958 35.2220459 C-0.45371926 35.05639596 -0.45371926 35.05639596 -17.63671875 19.9140625 C-19.99420232 17.18938623 -20.34317422 15.16860329 -20.6796875 11.6015625 C-20.19660358 5.90117228 -17.79263984 3.14945453 -13.5546875 -0.5234375 C-8.73884102 -2.88414656 -4.98136378 -1.60651871 0 0 Z " fill="#00AA94" transform="translate(443.3671875,618.0859375)"/>
<path d="M0 0 C0.66 0.33 1.32 0.66 2 1 C0.37660195 2.70884005 -1.29319053 4.37446717 -3 6 C-3.66 6 -4.32 6 -5 6 C-5.268125 6.598125 -5.53625 7.19625 -5.8125 7.8125 C-6.98493467 9.97224808 -8.19369282 11.35790256 -10 13 C-10.99 12.67 -11.98 12.34 -13 12 C-8.87675353 7.74790208 -4.48717034 3.86364295 0 0 Z " fill="#F7CF95" transform="translate(219,296)"/>
<path d="M0 0 C0.66 0 1.32 0 2 0 C3.20272819 2.40545638 3.10071472 3.94996953 3.0625 6.625 C3.05347656 7.44226563 3.04445313 8.25953125 3.03515625 9.1015625 C3.02355469 9.72804688 3.01195312 10.35453125 3 11 C2.67 11 2.34 11 2 11 C2 8.69 2 6.38 2 4 C0.68 4 -0.64 4 -2 4 C-1.34 2.68 -0.68 1.36 0 0 Z " fill="#F6D098" transform="translate(442,308)"/>
<path d="M0 0 C3.68754757 0.49831724 5.60490662 1.10067643 8 4 C7.01 4 6.02 4 5 4 C5 4.66 5 5.32 5 6 C4.34 6 3.68 6 3 6 C3 5.01 3 4.02 3 3 C2.34 2.67 1.68 2.34 1 2 C0.67 1.34 0.34 0.68 0 0 Z " fill="#02C1AB" transform="translate(783,809)"/>
<path d="M0 0 C0.66 0.33 1.32 0.66 2 1 C1.04882866 2.1725131 0.08882991 3.33787015 -0.875 4.5 C-1.40867187 5.1496875 -1.94234375 5.799375 -2.4921875 6.46875 C-2.98976563 6.9740625 -3.48734375 7.479375 -4 8 C-4.66 8 -5.32 8 -6 8 C-6 5 -6 5 -4.6875 3.61328125 C-3.125 2.40885417 -1.5625 1.20442708 0 0 Z " fill="#F8D197" transform="translate(267,254)"/>
<path d="M0 0 C-2.3129482 2.3129482 -3.47904875 2.49580975 -6.625 3.125 C-7.44226563 3.29257812 -8.25953125 3.46015625 -9.1015625 3.6328125 C-10.04128906 3.81457031 -10.04128906 3.81457031 -11 4 C-4.14893617 -1.38297872 -4.14893617 -1.38297872 0 0 Z " fill="#00BEA6" transform="translate(656,861)"/>
<path d="M0 0 C0.66 0.33 1.32 0.66 2 1 C2 1.66 2 2.32 2 3 C0.04072937 4.7143618 -1.95880212 6.38405168 -4 8 C-3.50168276 4.31245243 -2.89932357 2.39509338 0 0 Z " fill="#00B49E" transform="translate(428,619)"/>
<path d="M0 0 C0.66 0 1.32 0 2 0 C1.67 1.98 1.34 3.96 1 6 C0.34 5.34 -0.32 4.68 -1 4 C-2.98 4.99 -2.98 4.99 -5 6 C-3.38405168 3.95880212 -1.7143618 1.95927063 0 0 Z " fill="#FDDFA3" transform="translate(282,241)"/>
<path d="M0 0 C0 0.99 0 1.98 0 3 C-2.375 4.75 -2.375 4.75 -5 6 C-5.66 5.67 -6.32 5.34 -7 5 C-4.69 3.35 -2.38 1.7 0 0 Z " fill="#FBE8C9" transform="translate(342,185)"/>
</svg>
